<svg width="57" height="56" viewBox="0 0 57 56" fill="none" xmlns="http://www.w3.org/2000/svg">
<g id="check-verified-01">
<path id="Icon" d="M21.5003 28.0001L26.167 32.6667L36.667 22.1667M17.6125 8.91037C19.4881 8.7607 21.2687 8.02315 22.7008 6.80273C26.0427 3.95476 30.958 3.95476 34.2999 6.80273C35.732 8.02315 37.5126 8.7607 39.3882 8.91037C43.7651 9.25965 47.2408 12.7353 47.59 17.1122C47.7397 18.9878 48.4773 20.7684 49.6977 22.2005C52.5456 25.5424 52.5456 30.4577 49.6977 33.7997C48.4773 35.2317 47.7397 37.0123 47.59 38.888C47.2408 43.2649 43.7651 46.7405 39.3882 47.0898C37.5126 47.2395 35.732 47.977 34.2999 49.1974C30.958 52.0454 26.0427 52.0454 22.7008 49.1974C21.2687 47.977 19.4881 47.2395 17.6125 47.0898C13.2355 46.7405 9.7599 43.2649 9.41061 38.888C9.26094 37.0123 8.52339 35.2317 7.30297 33.7997C4.455 30.4577 4.455 25.5424 7.30297 22.2005C8.52339 20.7684 9.26094 18.9878 9.41061 17.1122C9.7599 12.7353 13.2355 9.25965 17.6125 8.91037Z" stroke="#6A994E" stroke-width="3" stroke-linecap="round" stroke-linejoin="round"/>
</g>
</svg>
